<mxfile host="65bd71144e">
    <diagram id="LaPyV7gFVvImDYke7f6M" name="Page-1">
        <mxGraphModel dx="989" dy="404" grid="1" gridSize="10" guides="1" tooltips="1" connect="1" arrows="1" fold="1" page="1" pageScale="1" pageWidth="850" pageHeight="1100" math="0" shadow="0">
            <root>
                <mxCell id="0"/>
                <mxCell id="1" parent="0"/>
                <mxCell id="2" value="Cliente" style="swimlane;fontStyle=0;childLayout=stackLayout;horizontal=1;startSize=26;fillColor=none;horizontalStack=0;resizeParent=1;resizeParentMax=0;resizeLast=0;collapsible=1;marginBottom=0;" parent="1" vertex="1">
                    <mxGeometry x="30" y="240" width="170" height="364" as="geometry"/>
                </mxCell>
                <mxCell id="3" value="_id: ObjectId" style="text;strokeColor=none;fillColor=none;align=left;verticalAlign=top;spacingLeft=4;spacingRight=4;overflow=hidden;rotatable=0;points=[[0,0.5],[1,0.5]];portConstraint=eastwest;" parent="2" vertex="1">
                    <mxGeometry y="26" width="170" height="26" as="geometry"/>
                </mxCell>
                <mxCell id="4" value="nome: String" style="text;strokeColor=none;fillColor=none;align=left;verticalAlign=top;spacingLeft=4;spacingRight=4;overflow=hidden;rotatable=0;points=[[0,0.5],[1,0.5]];portConstraint=eastwest;" parent="2" vertex="1">
                    <mxGeometry y="52" width="170" height="26" as="geometry"/>
                </mxCell>
                <mxCell id="5" value="cpf: String" style="text;strokeColor=none;fillColor=none;align=left;verticalAlign=top;spacingLeft=4;spacingRight=4;overflow=hidden;rotatable=0;points=[[0,0.5],[1,0.5]];portConstraint=eastwest;" parent="2" vertex="1">
                    <mxGeometry y="78" width="170" height="26" as="geometry"/>
                </mxCell>
                <mxCell id="34" value="data_nascimento: DateTime?" style="text;strokeColor=none;fillColor=none;align=left;verticalAlign=top;spacingLeft=4;spacingRight=4;overflow=hidden;rotatable=0;points=[[0,0.5],[1,0.5]];portConstraint=eastwest;" parent="2" vertex="1">
                    <mxGeometry y="104" width="170" height="26" as="geometry"/>
                </mxCell>
                <mxCell id="35" value="email: String" style="text;strokeColor=none;fillColor=none;align=left;verticalAlign=top;spacingLeft=4;spacingRight=4;overflow=hidden;rotatable=0;points=[[0,0.5],[1,0.5]];portConstraint=eastwest;" parent="2" vertex="1">
                    <mxGeometry y="130" width="170" height="26" as="geometry"/>
                </mxCell>
                <mxCell id="37" value="logradouro: String" style="text;strokeColor=none;fillColor=none;align=left;verticalAlign=top;spacingLeft=4;spacingRight=4;overflow=hidden;rotatable=0;points=[[0,0.5],[1,0.5]];portConstraint=eastwest;" parent="2" vertex="1">
                    <mxGeometry y="156" width="170" height="26" as="geometry"/>
                </mxCell>
                <mxCell id="38" value="num_casa: String" style="text;strokeColor=none;fillColor=none;align=left;verticalAlign=top;spacingLeft=4;spacingRight=4;overflow=hidden;rotatable=0;points=[[0,0.5],[1,0.5]];portConstraint=eastwest;" parent="2" vertex="1">
                    <mxGeometry y="182" width="170" height="26" as="geometry"/>
                </mxCell>
                <mxCell id="39" value="complemento: String?" style="text;strokeColor=none;fillColor=none;align=left;verticalAlign=top;spacingLeft=4;spacingRight=4;overflow=hidden;rotatable=0;points=[[0,0.5],[1,0.5]];portConstraint=eastwest;" parent="2" vertex="1">
                    <mxGeometry y="208" width="170" height="26" as="geometry"/>
                </mxCell>
                <mxCell id="40" value="bairro: String" style="text;strokeColor=none;fillColor=none;align=left;verticalAlign=top;spacingLeft=4;spacingRight=4;overflow=hidden;rotatable=0;points=[[0,0.5],[1,0.5]];portConstraint=eastwest;" parent="2" vertex="1">
                    <mxGeometry y="234" width="170" height="26" as="geometry"/>
                </mxCell>
                <mxCell id="41" value="municipio: String" style="text;strokeColor=none;fillColor=none;align=left;verticalAlign=top;spacingLeft=4;spacingRight=4;overflow=hidden;rotatable=0;points=[[0,0.5],[1,0.5]];portConstraint=eastwest;" parent="2" vertex="1">
                    <mxGeometry y="260" width="170" height="26" as="geometry"/>
                </mxCell>
                <mxCell id="42" value="uf: String" style="text;strokeColor=none;fillColor=none;align=left;verticalAlign=top;spacingLeft=4;spacingRight=4;overflow=hidden;rotatable=0;points=[[0,0.5],[1,0.5]];portConstraint=eastwest;" parent="2" vertex="1">
                    <mxGeometry y="286" width="170" height="26" as="geometry"/>
                </mxCell>
                <mxCell id="43" value="cep: String" style="text;strokeColor=none;fillColor=none;align=left;verticalAlign=top;spacingLeft=4;spacingRight=4;overflow=hidden;rotatable=0;points=[[0,0.5],[1,0.5]];portConstraint=eastwest;" parent="2" vertex="1">
                    <mxGeometry y="312" width="170" height="26" as="geometry"/>
                </mxCell>
                <mxCell id="36" value="celular: String" style="text;strokeColor=none;fillColor=none;align=left;verticalAlign=top;spacingLeft=4;spacingRight=4;overflow=hidden;rotatable=0;points=[[0,0.5],[1,0.5]];portConstraint=eastwest;" parent="2" vertex="1">
                    <mxGeometry y="338" width="170" height="26" as="geometry"/>
                </mxCell>
                <mxCell id="6" value="Categoria" style="swimlane;fontStyle=0;childLayout=stackLayout;horizontal=1;startSize=26;fillColor=none;horizontalStack=0;resizeParent=1;resizeParentMax=0;resizeLast=0;collapsible=1;marginBottom=0;" parent="1" vertex="1">
                    <mxGeometry x="350" y="50" width="140" height="78" as="geometry"/>
                </mxCell>
                <mxCell id="7" value="_id: ObjectId" style="text;strokeColor=none;fillColor=none;align=left;verticalAlign=top;spacingLeft=4;spacingRight=4;overflow=hidden;rotatable=0;points=[[0,0.5],[1,0.5]];portConstraint=eastwest;" parent="6" vertex="1">
                    <mxGeometry y="26" width="140" height="26" as="geometry"/>
                </mxCell>
                <mxCell id="8" value="descricao: String" style="text;strokeColor=none;fillColor=none;align=left;verticalAlign=top;spacingLeft=4;spacingRight=4;overflow=hidden;rotatable=0;points=[[0,0.5],[1,0.5]];portConstraint=eastwest;" parent="6" vertex="1">
                    <mxGeometry y="52" width="140" height="26" as="geometry"/>
                </mxCell>
                <mxCell id="10" value="Venda" style="swimlane;fontStyle=0;childLayout=stackLayout;horizontal=1;startSize=26;fillColor=none;horizontalStack=0;resizeParent=1;resizeParentMax=0;resizeLast=0;collapsible=1;marginBottom=0;" parent="1" vertex="1">
                    <mxGeometry x="260" y="490" width="140" height="156" as="geometry"/>
                </mxCell>
                <mxCell id="11" value="_id: ObjectId" style="text;strokeColor=none;fillColor=none;align=left;verticalAlign=top;spacingLeft=4;spacingRight=4;overflow=hidden;rotatable=0;points=[[0,0.5],[1,0.5]];portConstraint=eastwest;" parent="10" vertex="1">
                    <mxGeometry y="26" width="140" height="26" as="geometry"/>
                </mxCell>
                <mxCell id="12" value="num_venda: Number" style="text;strokeColor=none;fillColor=none;align=left;verticalAlign=top;spacingLeft=4;spacingRight=4;overflow=hidden;rotatable=0;points=[[0,0.5],[1,0.5]];portConstraint=eastwest;" parent="10" vertex="1">
                    <mxGeometry y="52" width="140" height="26" as="geometry"/>
                </mxCell>
                <mxCell id="49" value="data_hora: DateTime" style="text;strokeColor=none;fillColor=none;align=left;verticalAlign=top;spacingLeft=4;spacingRight=4;overflow=hidden;rotatable=0;points=[[0,0.5],[1,0.5]];portConstraint=eastwest;" parent="10" vertex="1">
                    <mxGeometry y="78" width="140" height="26" as="geometry"/>
                </mxCell>
                <mxCell id="50" value="itens: [ItemVenda]" style="text;strokeColor=none;fillColor=none;align=left;verticalAlign=top;spacingLeft=4;spacingRight=4;overflow=hidden;rotatable=0;points=[[0,0.5],[1,0.5]];portConstraint=eastwest;" parent="10" vertex="1">
                    <mxGeometry y="104" width="140" height="26" as="geometry"/>
                </mxCell>
                <mxCell id="48" value="cliente: Cliente" style="text;strokeColor=none;fillColor=none;align=left;verticalAlign=top;spacingLeft=4;spacingRight=4;overflow=hidden;rotatable=0;points=[[0,0.5],[1,0.5]];portConstraint=eastwest;" parent="10" vertex="1">
                    <mxGeometry y="130" width="140" height="26" as="geometry"/>
                </mxCell>
                <mxCell id="14" value="Produto" style="swimlane;fontStyle=0;childLayout=stackLayout;horizontal=1;startSize=26;fillColor=none;horizontalStack=0;resizeParent=1;resizeParentMax=0;resizeLast=0;collapsible=1;marginBottom=0;" parent="1" vertex="1">
                    <mxGeometry x="350" y="226" width="140" height="234" as="geometry"/>
                </mxCell>
                <mxCell id="15" value="_id: ObjectId" style="text;strokeColor=none;fillColor=none;align=left;verticalAlign=top;spacingLeft=4;spacingRight=4;overflow=hidden;rotatable=0;points=[[0,0.5],[1,0.5]];portConstraint=eastwest;" parent="14" vertex="1">
                    <mxGeometry y="26" width="140" height="26" as="geometry"/>
                </mxCell>
                <mxCell id="16" value="nome: String" style="text;strokeColor=none;fillColor=none;align=left;verticalAlign=top;spacingLeft=4;spacingRight=4;overflow=hidden;rotatable=0;points=[[0,0.5],[1,0.5]];portConstraint=eastwest;" parent="14" vertex="1">
                    <mxGeometry y="52" width="140" height="26" as="geometry"/>
                </mxCell>
                <mxCell id="44" value="marca: String" style="text;strokeColor=none;fillColor=none;align=left;verticalAlign=top;spacingLeft=4;spacingRight=4;overflow=hidden;rotatable=0;points=[[0,0.5],[1,0.5]];portConstraint=eastwest;" parent="14" vertex="1">
                    <mxGeometry y="78" width="140" height="26" as="geometry"/>
                </mxCell>
                <mxCell id="45" value="especificacao: String?" style="text;strokeColor=none;fillColor=none;align=left;verticalAlign=top;spacingLeft=4;spacingRight=4;overflow=hidden;rotatable=0;points=[[0,0.5],[1,0.5]];portConstraint=eastwest;" parent="14" vertex="1">
                    <mxGeometry y="104" width="140" height="26" as="geometry"/>
                </mxCell>
                <mxCell id="46" value="unidade_medida: String" style="text;strokeColor=none;fillColor=none;align=left;verticalAlign=top;spacingLeft=4;spacingRight=4;overflow=hidden;rotatable=0;points=[[0,0.5],[1,0.5]];portConstraint=eastwest;" parent="14" vertex="1">
                    <mxGeometry y="130" width="140" height="26" as="geometry"/>
                </mxCell>
                <mxCell id="47" value="preco_unitario: Number" style="text;strokeColor=none;fillColor=none;align=left;verticalAlign=top;spacingLeft=4;spacingRight=4;overflow=hidden;rotatable=0;points=[[0,0.5],[1,0.5]];portConstraint=eastwest;" parent="14" vertex="1">
                    <mxGeometry y="156" width="140" height="26" as="geometry"/>
                </mxCell>
                <mxCell id="51" value="qtd_estoque: Number" style="text;strokeColor=none;fillColor=none;align=left;verticalAlign=top;spacingLeft=4;spacingRight=4;overflow=hidden;rotatable=0;points=[[0,0.5],[1,0.5]];portConstraint=eastwest;" parent="14" vertex="1">
                    <mxGeometry y="182" width="140" height="26" as="geometry"/>
                </mxCell>
                <mxCell id="17" value="categoria: Categoria" style="text;strokeColor=none;fillColor=none;align=left;verticalAlign=top;spacingLeft=4;spacingRight=4;overflow=hidden;rotatable=0;points=[[0,0.5],[1,0.5]];portConstraint=eastwest;" parent="14" vertex="1">
                    <mxGeometry y="208" width="140" height="26" as="geometry"/>
                </mxCell>
                <mxCell id="18" value="Fornecedor" style="swimlane;fontStyle=0;childLayout=stackLayout;horizontal=1;startSize=26;fillColor=none;horizontalStack=0;resizeParent=1;resizeParentMax=0;resizeLast=0;collapsible=1;marginBottom=0;" parent="1" vertex="1">
                    <mxGeometry x="620" y="240" width="140" height="364" as="geometry"/>
                </mxCell>
                <mxCell id="19" value="_id: ObjectId" style="text;strokeColor=none;fillColor=none;align=left;verticalAlign=top;spacingLeft=4;spacingRight=4;overflow=hidden;rotatable=0;points=[[0,0.5],[1,0.5]];portConstraint=eastwest;" parent="18" vertex="1">
                    <mxGeometry y="26" width="140" height="26" as="geometry"/>
                </mxCell>
                <mxCell id="20" value="razao_social: String" style="text;strokeColor=none;fillColor=none;align=left;verticalAlign=top;spacingLeft=4;spacingRight=4;overflow=hidden;rotatable=0;points=[[0,0.5],[1,0.5]];portConstraint=eastwest;" parent="18" vertex="1">
                    <mxGeometry y="52" width="140" height="26" as="geometry"/>
                </mxCell>
                <mxCell id="21" value="nome_fantasia: String?" style="text;strokeColor=none;fillColor=none;align=left;verticalAlign=top;spacingLeft=4;spacingRight=4;overflow=hidden;rotatable=0;points=[[0,0.5],[1,0.5]];portConstraint=eastwest;" parent="18" vertex="1">
                    <mxGeometry y="78" width="140" height="26" as="geometry"/>
                </mxCell>
                <mxCell id="52" value="cnpj: String" style="text;strokeColor=none;fillColor=none;align=left;verticalAlign=top;spacingLeft=4;spacingRight=4;overflow=hidden;rotatable=0;points=[[0,0.5],[1,0.5]];portConstraint=eastwest;" parent="18" vertex="1">
                    <mxGeometry y="104" width="140" height="26" as="geometry"/>
                </mxCell>
                <mxCell id="53" value="email: String" style="text;strokeColor=none;fillColor=none;align=left;verticalAlign=top;spacingLeft=4;spacingRight=4;overflow=hidden;rotatable=0;points=[[0,0.5],[1,0.5]];portConstraint=eastwest;" parent="18" vertex="1">
                    <mxGeometry y="130" width="140" height="26" as="geometry"/>
                </mxCell>
                <mxCell id="54" value="logradouro: String" style="text;strokeColor=none;fillColor=none;align=left;verticalAlign=top;spacingLeft=4;spacingRight=4;overflow=hidden;rotatable=0;points=[[0,0.5],[1,0.5]];portConstraint=eastwest;" parent="18" vertex="1">
                    <mxGeometry y="156" width="140" height="26" as="geometry"/>
                </mxCell>
                <mxCell id="55" value="num_casa: String" style="text;strokeColor=none;fillColor=none;align=left;verticalAlign=top;spacingLeft=4;spacingRight=4;overflow=hidden;rotatable=0;points=[[0,0.5],[1,0.5]];portConstraint=eastwest;" parent="18" vertex="1">
                    <mxGeometry y="182" width="140" height="26" as="geometry"/>
                </mxCell>
                <mxCell id="56" value="complemento: String?" style="text;strokeColor=none;fillColor=none;align=left;verticalAlign=top;spacingLeft=4;spacingRight=4;overflow=hidden;rotatable=0;points=[[0,0.5],[1,0.5]];portConstraint=eastwest;" parent="18" vertex="1">
                    <mxGeometry y="208" width="140" height="26" as="geometry"/>
                </mxCell>
                <mxCell id="57" value="bairro: String" style="text;strokeColor=none;fillColor=none;align=left;verticalAlign=top;spacingLeft=4;spacingRight=4;overflow=hidden;rotatable=0;points=[[0,0.5],[1,0.5]];portConstraint=eastwest;" parent="18" vertex="1">
                    <mxGeometry y="234" width="140" height="26" as="geometry"/>
                </mxCell>
                <mxCell id="58" value="municipio: String" style="text;strokeColor=none;fillColor=none;align=left;verticalAlign=top;spacingLeft=4;spacingRight=4;overflow=hidden;rotatable=0;points=[[0,0.5],[1,0.5]];portConstraint=eastwest;" parent="18" vertex="1">
                    <mxGeometry y="260" width="140" height="26" as="geometry"/>
                </mxCell>
                <mxCell id="61" value="celular: String" style="text;strokeColor=none;fillColor=none;align=left;verticalAlign=top;spacingLeft=4;spacingRight=4;overflow=hidden;rotatable=0;points=[[0,0.5],[1,0.5]];portConstraint=eastwest;" parent="18" vertex="1">
                    <mxGeometry y="286" width="140" height="26" as="geometry"/>
                </mxCell>
                <mxCell id="60" value="cep: String" style="text;strokeColor=none;fillColor=none;align=left;verticalAlign=top;spacingLeft=4;spacingRight=4;overflow=hidden;rotatable=0;points=[[0,0.5],[1,0.5]];portConstraint=eastwest;" parent="18" vertex="1">
                    <mxGeometry y="312" width="140" height="26" as="geometry"/>
                </mxCell>
                <mxCell id="59" value="uf: String" style="text;strokeColor=none;fillColor=none;align=left;verticalAlign=top;spacingLeft=4;spacingRight=4;overflow=hidden;rotatable=0;points=[[0,0.5],[1,0.5]];portConstraint=eastwest;" parent="18" vertex="1">
                    <mxGeometry y="338" width="140" height="26" as="geometry"/>
                </mxCell>
                <mxCell id="22" value="" style="endArrow=diamondThin;endFill=1;endSize=24;html=1;entryX=-0.009;entryY=0.132;entryDx=0;entryDy=0;entryPerimeter=0;exitX=1.008;exitY=0.035;exitDx=0;exitDy=0;exitPerimeter=0;" parent="1" source="2" target="10" edge="1">
                    <mxGeometry width="160" relative="1" as="geometry">
                        <mxPoint x="285" y="243" as="sourcePoint"/>
                        <mxPoint x="555" y="303" as="targetPoint"/>
                        <Array as="points">
                            <mxPoint x="220" y="253"/>
                            <mxPoint x="220" y="511"/>
                        </Array>
                    </mxGeometry>
                </mxCell>
                <mxCell id="23" value="" style="endArrow=diamondThin;endFill=1;endSize=24;html=1;exitX=1.013;exitY=0.103;exitDx=0;exitDy=0;exitPerimeter=0;entryX=0.5;entryY=0;entryDx=0;entryDy=0;" parent="1" source="14" target="62" edge="1">
                    <mxGeometry width="160" relative="1" as="geometry">
                        <mxPoint x="395" y="303" as="sourcePoint"/>
                        <mxPoint x="500" y="440" as="targetPoint"/>
                        <Array as="points">
                            <mxPoint x="530" y="250"/>
                            <mxPoint x="530" y="350"/>
                            <mxPoint x="530" y="430"/>
                            <mxPoint x="530" y="500"/>
                        </Array>
                    </mxGeometry>
                </mxCell>
                <mxCell id="24" value="" style="endArrow=diamondThin;endFill=1;endSize=24;html=1;exitX=-0.009;exitY=0.142;exitDx=0;exitDy=0;exitPerimeter=0;entryX=-0.004;entryY=0.076;entryDx=0;entryDy=0;entryPerimeter=0;" parent="1" source="6" target="14" edge="1">
                    <mxGeometry width="160" relative="1" as="geometry">
                        <mxPoint x="395" y="303" as="sourcePoint"/>
                        <mxPoint x="555" y="303" as="targetPoint"/>
                        <Array as="points">
                            <mxPoint x="305" y="61"/>
                            <mxPoint x="305" y="163"/>
                            <mxPoint x="305" y="244"/>
                        </Array>
                    </mxGeometry>
                </mxCell>
                <mxCell id="25" value="" style="endArrow=diamondThin;endFill=1;endSize=24;html=1;exitX=0.357;exitY=0;exitDx=0;exitDy=0;exitPerimeter=0;entryX=0.5;entryY=0;entryDx=0;entryDy=0;" parent="1" source="18" target="14" edge="1">
                    <mxGeometry width="160" relative="1" as="geometry">
                        <mxPoint x="445" y="253" as="sourcePoint"/>
                        <mxPoint x="445" y="223" as="targetPoint"/>
                        <Array as="points">
                            <mxPoint x="670" y="200"/>
                            <mxPoint x="540" y="200"/>
                            <mxPoint x="420" y="200"/>
                        </Array>
                    </mxGeometry>
                </mxCell>
                <mxCell id="26" value="0..*" style="text;html=1;align=center;verticalAlign=middle;resizable=0;points=[];autosize=1;strokeColor=none;fillColor=none;" parent="1" vertex="1">
                    <mxGeometry x="220" y="470" width="40" height="30" as="geometry"/>
                </mxCell>
                <mxCell id="27" value="1" style="text;html=1;align=center;verticalAlign=middle;resizable=0;points=[];autosize=1;strokeColor=none;fillColor=none;" parent="1" vertex="1">
                    <mxGeometry x="200" y="226" width="30" height="30" as="geometry"/>
                </mxCell>
                <mxCell id="28" value="1" style="text;html=1;align=center;verticalAlign=middle;resizable=0;points=[];autosize=1;strokeColor=none;fillColor=none;" parent="1" vertex="1">
                    <mxGeometry x="315" y="70" width="30" height="30" as="geometry"/>
                </mxCell>
                <mxCell id="29" value="0..*" style="text;html=1;align=center;verticalAlign=middle;resizable=0;points=[];autosize=1;strokeColor=none;fillColor=none;" parent="1" vertex="1">
                    <mxGeometry x="320" y="205" width="40" height="30" as="geometry"/>
                </mxCell>
                <mxCell id="30" value="0..*" style="text;html=1;align=center;verticalAlign=middle;resizable=0;points=[];autosize=1;strokeColor=none;fillColor=none;" parent="1" vertex="1">
                    <mxGeometry x="540" y="490" width="40" height="30" as="geometry"/>
                </mxCell>
                <mxCell id="31" value="1..*" style="text;html=1;align=center;verticalAlign=middle;resizable=0;points=[];autosize=1;strokeColor=none;fillColor=none;" parent="1" vertex="1">
                    <mxGeometry x="490" y="260" width="40" height="30" as="geometry"/>
                </mxCell>
                <mxCell id="32" value="1" style="text;html=1;align=center;verticalAlign=middle;resizable=0;points=[];autosize=1;strokeColor=none;fillColor=none;" parent="1" vertex="1">
                    <mxGeometry x="625" y="205" width="30" height="30" as="geometry"/>
                </mxCell>
                <mxCell id="33" value="0..*" style="text;html=1;align=center;verticalAlign=middle;resizable=0;points=[];autosize=1;strokeColor=none;fillColor=none;" parent="1" vertex="1">
                    <mxGeometry x="430" y="205" width="40" height="30" as="geometry"/>
                </mxCell>
                <mxCell id="62" value="ItensVenda" style="swimlane;fontStyle=0;childLayout=stackLayout;horizontal=1;startSize=26;fillColor=none;horizontalStack=0;resizeParent=1;resizeParentMax=0;resizeLast=0;collapsible=1;marginBottom=0;" parent="1" vertex="1">
                    <mxGeometry x="460" y="530" width="140" height="104" as="geometry"/>
                </mxCell>
                <mxCell id="63" value="num_item: Number&#10;" style="text;strokeColor=none;fillColor=none;align=left;verticalAlign=top;spacingLeft=4;spacingRight=4;overflow=hidden;rotatable=0;points=[[0,0.5],[1,0.5]];portConstraint=eastwest;" parent="62" vertex="1">
                    <mxGeometry y="26" width="140" height="26" as="geometry"/>
                </mxCell>
                <mxCell id="64" value="quantidade: number" style="text;strokeColor=none;fillColor=none;align=left;verticalAlign=top;spacingLeft=4;spacingRight=4;overflow=hidden;rotatable=0;points=[[0,0.5],[1,0.5]];portConstraint=eastwest;" parent="62" vertex="1">
                    <mxGeometry y="52" width="140" height="26" as="geometry"/>
                </mxCell>
                <mxCell id="65" value="produto: Produto" style="text;strokeColor=none;fillColor=none;align=left;verticalAlign=top;spacingLeft=4;spacingRight=4;overflow=hidden;rotatable=0;points=[[0,0.5],[1,0.5]];portConstraint=eastwest;" parent="62" vertex="1">
                    <mxGeometry y="78" width="140" height="26" as="geometry"/>
                </mxCell>
                <mxCell id="68" value="" style="endArrow=diamondThin;endFill=1;endSize=24;html=1;exitX=1.003;exitY=0.064;exitDx=0;exitDy=0;exitPerimeter=0;entryX=0.25;entryY=0;entryDx=0;entryDy=0;" parent="1" source="10" target="62" edge="1">
                    <mxGeometry width="160" relative="1" as="geometry">
                        <mxPoint x="460" y="490" as="sourcePoint"/>
                        <mxPoint x="620" y="490" as="targetPoint"/>
                        <Array as="points">
                            <mxPoint x="495" y="500"/>
                        </Array>
                    </mxGeometry>
                </mxCell>
                <mxCell id="70" value="0..*&lt;br&gt;" style="text;html=1;align=center;verticalAlign=middle;resizable=0;points=[];autosize=1;strokeColor=none;fillColor=none;" parent="1" vertex="1">
                    <mxGeometry x="450" y="500" width="40" height="30" as="geometry"/>
                </mxCell>
                <mxCell id="71" value="1" style="text;html=1;align=center;verticalAlign=middle;resizable=0;points=[];autosize=1;strokeColor=none;fillColor=none;" parent="1" vertex="1">
                    <mxGeometry x="395" y="475" width="30" height="30" as="geometry"/>
                </mxCell>
                <mxCell id="75" value="" style="shape=stencil(lZ3ZkiXHjUS/hq/XYl+eNTP/QTO2RJo0bFqTmuXvJ2OoW4t71kHXGxegbmRmBAJwAI4f6l9+//nH3778UNLvf3z7+vcv//3LT3/8/EP9tx9K+eXXn798++WP659+qP/+Q/3LX79++/K3b1//+etPf/77bz8eyfNP//n1v85f+J8/9XZ91H20SvrfP//L6o8+/v+//MefCv/45df3Cv/6328U0kSFnd4rtOdv3itc/7u9V6iPlVBhJVUoCxT6I/f3CuUx6Rn6o01VqAUVZn2vkB+bFMYjNVVo9JbGoyVV+NdTfaQw5MOlx6IlzUdKqtBYoRRVSPQM8/mIT4W5HyOjwiqqkCoorEd6/9BzPTr9wnp+1xeF6zfpPCzdGpdCoe+wHkN+YURLmvIL/fknPlLY7/fSbI9JB2g/siyp8tbYz0d8o5DoGfajikJ5FDpxl4J8uPzodKYvBXlLia3GpVBVAQ3Z9dDvX+vYT0v1kUJ6v73HYjOzHmupQuOtMZIqZFrSehRZ0nxs2q3X7p+q0PlM9/d7aYzHpoee9loHG7Kpu3Vc54G2xlTbeilktq07v1dovFvHY73f3qM+Ji1pqCG7FAoZsktBlnRdWbQ17hRysKT352Hkx6C95A+dn1/mQwXZ3okNmX+HFP3Cfr9b+37eSR9ujfffoa/ojkvvn6FP/g7Xbq2qgKZyPvfmi8J4VFaQA9SD+2Gq9e6NnZNLYagCmhlXqM8L4HsVCruhrpAf83MKKbRLpoAHyBTaZkfXFVZkW1Vh8h1nW6O92MIPN5/8wuAb6Pp77/dSe3F9PzyiVRVwSWYq2xUg0EOPx3x/gFrlM+0K1+bjZ5jyWq/NF/jeonBtPjbGvapCcD+096ay7ugZJMqqi53EoZ5xvTYf36KugOGAK4zoS6vCFbx+TqFFt6gq1CiOc4XgylKF8nRMv1chc/ww1NGt17Ub/MJ7hbKfG/57FVbk/sjmK5MDDlcY4eaTJfUnDvGhQlaFys9Q3vsapbExHs8T/EYhiNjze1+jXIaMlyS+RilP0/Yh6jBUAZd0vcT3prLkZ/z7ocL7CKWkp9v4kYKY+0shAHPme4W8efP15yX7RgHNTH+095svL36t/bniNwqFnJMrHnm/+fLkkKbpLZonhzQvdu5FYbB33xTXyC+b5SMF8TVy593a1PfOgRtaNaS5FPBiN6wy12dE8ZFCTarQaGvUJ/z0olAYLirqa+TA3F+uiHyH/AyjPlIQQ3YpoAtX7BkCzzir+3MpdDrT2fZS4rAsawy0+ZmTBoqbwaKkGNxmG5P0zn2B2D6SF694PQa80bUNVEd7cckLjLOeZ+lefukXYxBnOaiJkcwlLzcVW6PlqNLzXvlIvgvUgAb4kperduAGXQ40YMh9yXdBMtA2XvIaceMluPrTEL7Kk7FeXfczm95LXuxcf26oe/lmuAp68pf8kPDleV99JC/7mV2pVZ+g5av8pP1fn2mFV/lB36vq/mlPoPVevih21h6dvldRj6I9UdOP5JPJ03qyv39KJl3ypXxGPllMzvstaXQayidbP8iftJHuB1r/JS++eyC/1D6E8l3/Pn2vS15xGpafah8ahoCXvO1/2p8nhbVUnt7/ZT8FNsLzdcnb9yL8ZFpwdtkHWn9Xe9WeC/xIXnKjHYP2S17C0Y4RxCWf1P7j/mlPLPNVnmCKS77p36esziUvMN/A+3pWtScD7e0lL/7SQLhrFg0rOYd6yUveayLYdZKNWeTpfplZUxvr+QE/km/qj+F+yBrvvRiMe/n0PB6v8uQ/XPKSPd24n8fW87IRrh/mr260J5e8ABMbscax1D5shIdO1rOIPMV5J4epz0v+/HjZvm/kYb9d8lXjF4psR9fINlh/10RAIN8UIwnli62H1l+fn/O75Yuth95neSI63/m9ihYDbLT/l3yy9YO9es2MvpEH+3nJKyCUnr94r5DUwT0K9EaTrignrIy5FKor0DtN6oPmhEaxbzVaRwG+wqXQXAHM4qUg19hRgO/Wl9r1WKH7Q7NCMTCFQqU+tVgnVhj+C/SWpkLhwdbolhTn09DHzemHndQNpt5P83cv3zXa3hiNdYtur41F+6776afovzd/3kx/v2n0s7EC4CTXpfAOMcVeFVNc6E1f8k3RJkIXLvkstYmYm+9Fo8OF0cxJ9evzEqzbi6JNC4sxe34GC2/QNdr/L/m0V/nM8tnQOJJPaoU4kXrJS0nVRO+7J7VBE79X2xr9TKxru+Szet+UNGpewIg3zSUvpa1cQdamo3eU6rvkq6KJ5E23odHYwOihDS0vHlj217peMgPPb2vqHAxMzzazP4F81eRSsJ56s3563urRJ6G5zby/4P0X3z+EFjRLgHBuuWWNTgZG25d8sf1P60+Kjk/0OS55Q+sL//2kaD2loOplHzQ6J3tet96/E9GgamWvE7/XJd/U/pMjWq0IfGG2p06rlEe0plpZ1sLkbbVsA0fzl3zX+4WijUu+qL+Uwd+olkHfiL5c8lmjz0Lrae6/ETpyydv6Ub6qCx3Kf2491bOR+LyW4+Xs4iVv/iFVG1/y6VPyWdGyjdnFepN9xf2QtP8mlG/q/wfyydYD6y/b0QJ6Pyc8+JS8ZQN4Pxz31NA12G/Fulx4/xSzPxv91eu6Gmo/Fz3vUDTxBZ77SF7u05cXcC/f9X5Z6B8esF39Zyo5PclK9Z8pHnxNXrzxb2n9TbMTL6X09/JV0W7OTl/yQ+Vx/1hP38D7sVRFTzuv37KdHePxS75btoTef7HKa7y/Stb32dD/v+SHypN/UvJN9pLl5X02tlfJs8eEk5Wk1RCVn9fiwYrVKHmrfatY45e33qcV7eclb+vJsP689P0UtFeXvOz/gvYqW/xYEH+45JvKk7+dreS94Hm85OV+5N7R3J/hyqs8xUeXvNxHGfd/bhqPZLRX2eLN/AR27+WrZp8y2ods8WbG83XJa3Ul2vNcrFYS469cNNuZ0D/PWZ83YfYjW7Yh8X7ICviG8ulT8hZvJq6G0+OVMBmzb94m1c5pai4S93eJ4mV/Yu1T6yAicV8Mild7kbD2oddiJD4+J55t01CSQGMQPiNdIYrMkIkVySLCbgEm//Ub+8TiAg9F4tU2AUWXGvyxeLn5qihe7WiTKdObOaPn4nXAz7qnD8Sz3mtU5ZSsNwEXYyhbQS82aVBfMemTlACCOSzS0yN742LCe0+6xbih2cQHJigsl8zVuUkTkhMNh4kvNHomzqXgJn7dVlQ65fLRJtM8e8Fkocuzs3snT2C0y3MprG2F3NH5S4oVZC4VS9aNM7B0J2luKE8shU3WA8JgruXa8sb0etJ+pcylLFao8XryP5KXnq6Mz5sVuzjBBjnTz1qAN/J0XrK1jFUMbs0mn9sR/754cyc4h/OStQbkgBF4R0jlXRnYqpA1digjWI/4LQc8wvUIdnSsIb4fOS8nWU7BgGKbp5iAghmLnTcHwxpL1hTc0bL/K9OuZN3/NQffSy71S56uC5cveL6s8qtWfJ938tRKY1h95Zu96HmvHe8Xlx8MXt/I0/fy9XNxwJ08nS+X52IRf/+c3LqTp+5QxxITdgC6PIced/JEeeXyBYtX7uQRLNPzeLL5n5JncPNOHsEOq9zv0fsReQbH7+Q5wlF5Lr7J1gnBxUz+93cQQrk8+bcm3xO2tbt8xmTMnfz4zPvshcG+G/lPfa9ekezA5Znq6U6e/QeV73hfuHy4nyVXMqP901Se/UPxh/sK9ptE1X0zWKy1eacwmREHqe3JgT2U+GIE4LsWLY+C8Yv5b6MG/rzKN2QVupOnYpGs2PXogT1X+YHFQC4/8f69k6dkVdba2sOZx+9T5Ln123J/M7rfVT5zskefd0b+qtZGFiy2s/M1+b42f29G/qd2SnEr8Uuq7EV+YLKwKF4xg2S81YbxfWq1ynNj8UFVwHMx0ZLT30boruzPxax61WqnOblotU+XPOE5zWrhKhfvWq11Df6+1sIxVZzRjKyOjS5N4/HFrZTWSXl66zE1ILna9ZKNvZXvmutfXDzarZZmov3pel7WRDyqazy+OJ6yWsG1udFImQZeuSs+kBf/ZCe8L6biRYerg1NoUruVER9b1tuSsfnEa7cKU2FYbwj7q9tq+RhP2Jot2gEVoyYWdsAFrPHjITOi+92oUQ4hE12Qluo4xFikkO0VDa5XyFoftrnhIJsTcZipyQkq2s+9mb8s2zW5F7t91kOzuQg5G2XFXljln6t9h8WRedOrdQfQo7GAHKJpeoZujWFciZnNOm5u3TrJC1eghx7KnBApTAXgY4X+uSUtLdeIFaRebDNxdd5aMLO5H/xSUCvMXtcpSRumQG6m5XE2k6t60V6soD3wgYK1rcUKaluDh65KExN86VIVvd9B6bCVrm4mTHZ/6pxpLu4t9uGIi+BQXdgvYPnqMHO/MOVSjCX6KHBBthbQLzT3xbqAN0exxVpgDrU7feltVmMhBUNNz8/09kJhBa3qX2g1ajbSiYWpo2rY1bkUqRGgWONG0PlTtfNqM919tdLs4GKvTfGiHTQ7eTPzxIC5Do2Q9ozal5p5MwQJ1mX90pyzPymXrgpUO1OdX2Rg1NOsLOA4ibCklu2OG+icnDSKfIeOQOiloLu145luRjq2GfptxqC5GXtpVpi7O97TrduV1dENPa2s8gyNe3GHnYeGvOxtmmfc+C0tLQ08VKW0l5a1YzUMadrWfuvNNQ6n4XqqAnXA9qwozGYU71LQliMmJu3FPLKKD31IAewXCAg4LAWiUBCZPrQJSxUoVdRt6tIrGeq9wrDGtcLMDzaR4kT39KXdWedBUIcPxPED+nDbtkZBcz+SsVcECtkOUKBQzHUIFKoZskDBOz4DBWNYjhTutgYq2KCPzYVXY97sJbKtY5knULA0bdgQpV0Qe57JaJYyFgPMbB8uYyvzLNbKyb0es1qvcWbquWbUW9wtMYftVq4AndPcnxSyNW5VIJhi2uSozfRPKylKuTZeKCtZyzrDsusli/VGgSzfskTYISEm4NQySQdZZlJUSZ2thVD6YWlNqkC5s5O6KKpA23s1G4HHVDlntKHB71S+cphylyogNXNXNHQxd+Dq2huxOFJcNhRg8cy8w4bcVAHpY32y4GI+2GlZooUX+/W/b36BFepnFTQxEygY0v/Ksv2RQrWtgW9pW66Lv8NJxfiXpuSAMREFS9oG2y1GHbZh92vx6LWsMPb59kR3bxUwa2Lwup1uavKgwGK7dfCcgqJF7Yv5wS/XXO641RFv3Z7G5R7pbR7Z4jqnM7XVFXhJUum9OrZZ7mY0YZ1nIjXbrZ2nOTQj/uLiGR+SsRgTeA1V335pHsNRbUk4JMOoOxdzAW+L4+JfUOckeAZja4/eUjWCnHAosc4Y7jx6rSqB9tlLwZKWKgS7VUdAhOdBhxLHR/SzCmpbGzfuNvXuVzCrrRkPMuNLt0cUZ6reKeD0q7slEfvB7UNThcDNvOpg1JThfPER/aRCNWPMXTEH69mqgDeQX1kT63gPdGPuD+FLu9h5WDzW0krvFieO9l0MhGOakqbXFufjjr/UTIE2n3tkG4f33Ph8G32NG69yY63Djd+60YW78Yw3YgI3vneooN59oODxQ6hw8wv0ljwGCr6DR1kbnZObOI730k2kyGn/m1iUt/dNtLsRDT3xtC+Jtrf10scKeikGD1000xRtjaKI7oFaeLiKkvdvbBFd+eYZKDW1klq+zdTcK1mRSkLLN7fhrSmagCIcJAeFo18wlurN1ANzqPXeXJk97TwcrBJ268EqhypEaKgp4BwOYwbdBaspZrpB1skIjH1Tv0gfbthI+XNzk8K0mpOCDtaYRudXsFLtFrsnNPQ2O4AKd/kHVLjLcKDCXQ4FFe6yNKhwlweiTsfbTBMq3OWyiLi3TxsTws00fWgct7l7/VLQQRUFT1z3DHjloQTNCjErhjTd4rhd8QZyOvaTDKZUbbEcSsWS226Q12ZSiW7zaTZT0nWvAua20JNjt7pkQkObkcAFhcxtWTFpY1rnad+BQ/w2bGpLxxThqaawXyDM+NRrdFUg29qa1QkwNtOanemOtQ6nqkX20sCs5aWgdmlw+YXRqZ3ZzLSkrPzIZ3w6vVYjEdk8z+owZpsC7aW6zTnh2ed1WV3/REe3TqsNndhoeViksyrQhVJtqORmYp9TCyffIajnMyRx8ySHU89nv0DOei1Wg7X4LVn//Gay21f6ijcKlISsNjtxB/TfyfbSwjuuuG0NKmiXXbs80eTUt1pRL1Kc2tCaqEDcAvC9uQ9xKK6xOSw7vDL2C3ShFPcqN7o/xQueNhrjU41tb4ncn2JA+ebBXsV9DZ7Vc1uzjpvvrioef+Gu7j5Q8Mp+VLjrHQgUvDuBHvq2/wG7fu86LJAm6K6HA3kQrEskJy468UaU79AQGCHUGBZdBo9x17CDL8pvrY23Vu4WjvLuyEY2eU4p90F5SxBhIbne/AJB39ng+81wZbY27MDiZ6vmCVogcjYfizP/Z0q9dQMEXXt6hiYW52Sbonkq6ekZkt3tPDkn29z34+tSgsAaD4PMqF1yTPy4bT0N20qWAYmNgcSbomGsabkBNciPnsqiGZTbeutDZtRRZxoeDJEGY1rPJHcn29zik+DBbvJtSQEcdafu7WL2oG7YNRf8NFsP9880KxLk7navnxg46s6rIQY3PNjkOi6s8fwEN1RYv91q3DljqQCm7q9W1lkD9gvxElZBf7BaDU7B71WNvSDzqCbLZPD5qmofzuR4ZJtbMqmD2V98bnTQZqdR+eTurqJX0hw8asHYTRjfMXbJ2QJ5mWxzchrI1iPZgllwFEi2SV85YOeS+D1k01H5iK1H5EM2IAnpQrYhlY/YjFye2ZLEPodsTCofsT3pelrArqrvs7GbqPthBKND9HwNTkHY/hwlYFvUSYDcbZC1Ge2wkSEbk4Bwh+2M1yNsbVyAbuf3sLXxerbKB4Ts8vcjtjmVj9jsVD5k/zV5ZuNT+YjtT+UjNkGXZ7ZClY/YEF2e2RZVPmJzFPmQLVL2T8hGqfIR26XKR2yauv6IrdPlP7WfQ7ZRlY/YTMW/DdlSVT5iYxV7ErK9ujyzJ6p8xFbr8oF9Fvnofhd/NWTzdXm+f8WeB2zELs9sx3fyyMRi8szWnLV2NWCD9r/PbNMuz2yC/v6Z3epOntnNVb4E7OkqH/mr+rw5YMcX/6HyRB+jzKgR+6n4V2caBvuTTeWDiSvCLr+C+0vY7wpn/Hw6AffeGPVXYX8mKV5RRjDNQ2fAdEwPGi3FQTzg/rJpGAeR4Mkr8vcrxi9Jwe6Tr0F5AZZLNL1EpyVkPL/JpjEkjB+TnpeSsCg8acFp3hg/Jhv0tPB+SYpy54nZ36T4Uh7BMBsdazUQz0yWxGF82OoUwmkwKh9Nm3F5nmaj8tF+U/loGo8UEITTfrTgIBgmpJ1O0dcV9CcYhCTi0ZglyYhHQ5xEvAfzquRRGwIPtpE57rK2hhIM1RFYg71UsyI5mOQlydoU+GxyZyVOrWmDUuJSCs3QcOX2zXw2spc3099I/Ga2HHnvN5PrWHzYo6K4TcnkEYBFv+qnJgayuM0j5LXfTDtkUl2bpUhH+2ZSI4EGN3MgSfxmyiSL2wxLFrcJmUgK4fM3WfxTi7mZHYrtjT6ZlMVt7ilOHrgZq4rYS9bkZcISw2xgKzMxZ0s2cO4yG9V8iihuq35bxEaKllMlLCHL1iSfsIIsVy0jTZw7aD42F2OlpmBHMCmraY9ycE91HxtNRueSl6rwzLHbUPArmN5pJXyZsY6pN2fm77XMWWRa6OV/H3Nb62aeKMlbq03h6pJtwSTGJuc4SfCPbk5JCl4UxApOsCpgB95xxexPxdxKsbHUTGF3PqeNref1bJWn7+ujLrjHoVgHc3teTh/Ji71qyLtTqjqaDbHN437pEFj0Bau+T+5WOA6YylMsdl6HylN9+XkdNpWW3n/TYouBuZjzeDrGlsrD3GnjyZA+amFibYOPWpg86W4oP9zE4rMyrBgCcxPH0ZPiG2Zynvr3uVjfRycs/l7LWD+YHXvrfbSYfnvreWQsqCbjRMBW/JqMOCKSlwL0QN5Gr4byOiqF5W0UY/B+ihb/8fuvRdtDAvnqz0v7oVY9L4sn//joHNyf1VqlQnlfDzNDK/cDr79buz7LD+OAwvurmr+38H6/5O37UvtcnTaqCe1VNf9wYm1nneo/Bw1SS+/ToANr2eguft6t+znsIZP9w8XH1Ua3hF1wVeUJ2GrWuDTw/TRLPnEt9Ekt69+n/dZstOvgSVYWbw4cRNDMfxuIdbeq5zf4+1WTKwPj62b+2EBksTW1zwPv91PKoP4YyltzavD+rfs1eN6h9AsD8Yo2NZk6uH13+vskfKYtjd8Hwj+nY3l+Zv1b2XqDPlnzZ5hlsBtmPzBX3m/sA9Wa9qSw5MD465Lfuh5kWfdiUHyfPWtx/MRcYbf4cTJTtxHBTPRnuk2vmIhvdB99iPa8VxvdiLnpbl1Gk1kEjGRvIp7QbRQg3+/dIHn2Hw4zg/pLhZ73k/7VJT/VP6RccB8a/y7sZeg2KmFh/q/7ZCm0P93iu83vcxpLBN4v3YfcRPLKnY/3S1/Wtsny29gVIvlmf5/5UrR9DP2Tkay5CO3PKTU2eepFStbDh/v/kt+6fvLHhhWLbybAzzfrod4o8994VtWw3OfG+GWY/8bUYYfTp6g8vU8b7cpsacOYWUN5pXlB/PywHun+D+S1Q5Plh3VD8vvxMVv8vaa1OGN+YSy3h5+ct4D+3tg31R+0f7bjP0QEMbZRaGKt70wev1NvwnTyScwPzqT420R6g+nNP4gPX/LD8FJav4+u5mkXRZtjB9LsvQ7a/r74d1pzGsc700ZL8+Thacw6nSff3uDz5M/MG3ye4tNp+HzDYqlp/lhDf2l23c+NR4f0m/wLvZ/u68H9P9T+V6z2mkPZzSr6e3No/oKHRM2p+AmzfF3yYt94Uvc0fKxifmQuX08gL/585f1g+H8gvzX+Cp53q/1h+WXFl6F8s/XzzJZl7z8Y2fKp9Zg/FshbKVoo33T/B/LLvhexmtrwxoq1rMsGGlfMny5jn6rYC7mMu79iPHvJCz7M+eVDld5Envzz1a0ZiSmKu+LzjUfT2Oy/hv7AGXKh9xcOORqa/2IK/jW12YDJ8w71gObHyX6uqfE+z0E4LNSfwSfXcv8EyZJtlDzjdWtrsz3jaWvrfpg8miXp804m0jdOyMlzJZLnK2k/3LCxY33FtuYWxme2NftxvH+oRjQeoXzT9iHy/H6KNT+kiHJfDOKlgIM6ilWEZQwxXqlQ3ygEo0DEhp4qQCLIMQaMXPirmVecazQaR+j1Mtv1Q1Qqb4mpS3dTxyN3HlFkc11zMP+kawHxK2/WRwoSm2QOlraxz+eJ0fw29DRz6/ru6v4FvTqvA37fKOBUDCMLzpvHXRl9T1CS+zrV+I0C+URHQWoMMyYdthUFnbI3mrAy9ACdskFekvasVTYClvcvDQsl91BgtzT0BLfRQp9Ql9+SGIESDNQaio0GyfkbBR4Uvoe1Ji50T28UNub/XaEmbMrZBtBV7ra6UQistytUxBxuFfBSdIWGHWA3Cj0yAqrAnAI3Csz9e6tAXfx7aOa0BqNxpoWyjK1uq82pzIB5mPSskx93q2WnDo0znQcjPG7lWRD0vQoVC8i2EYC3xjO+jN/+UggeWjyy1jFm29NiNgYdt00hboPHjk21rW1iW8KNAk8svVHYPIzKFDp3ktwqfO6he0Ys7kahsEfmCsEt6got+tKugNPcbGt0LtDeUwGqPtjRnYqo94kp4XMejK8I72njkT5ZZf4F8Vt7MLJrKso8EoehBjMM5jQ7Cu9f6xkOws8ghmxU9u7nEyh4UWg8a21qhDIa30BTc1ej8w1kdMRjYPZnW3XB4PL9vZR4egQu3FL8+5CzkZnZGg6MYHLsVt97BMNst6Ysxsaaw1ea6TcKSDjyStD8gsokHm9oZaWTOYB8TbOw2dgaD8yKlQB7K03tbFjqcajgpdSYe2W2Ee1OTt5tG/F+0j38C9JdMLlca1s54eTZB9smOc3NN4rN95nMV3+uIKPrRERqWsl64jM6bbZmZjRn2tjVjKjviV4FdSwI424bNLAKuzNGYX5mztGSXka2vChUXlJXe38pEFR88CIpPeDc6IGwhiqgt960WPOMI2RUTScudnbvqw4EOiMV6S1V60/gyTVHoakCHqBq23uwK1C15H2NaAyxRByLi4SPQrJnoA/nlMBcpu2Q7uI66m11EavjnbWt0XH1CAN2BWoV2c5r3DH3fBRsewcTqiOF6x9++/GPn//8l7/+8o9//P7Ht69///L2///167cvf/v29Z+//vTyn37/+cffvlz/9n8=);lineShape=1;" parent="1" vertex="1">
                    <mxGeometry x="217.6999133681495" y="456.5719441347369" width="402.5700272887228" height="237.28305429212043" as="geometry"/>
                </mxCell>
            </root>
        </mxGraphModel>
    </diagram>
</mxfile>